<svg xmlns="http://www.w3.org/2000/svg" viewBox="0 0 1061 858" font-family="Noto Sans CJK SC"><rect x="0" y="0" width="1061" height="858" fill="#eef4f7"/><path d="M136.5,904.3 123.0,906.3 103.6,909.3 82.0,912.7 59.8,916.1 37.6,919.4 16.9,922.6 -2.2,925.4 -7.9,927.0 -5.0,935.3 -6.5,943.8 -10.1,950.5 -16.0,958.7 -18.8,962.0 -25.0,968.3 -30.0,972.8 -40.1,980.4 -46.9,984.7 -46.9,988.6 -35.9,1006.9 -30.9,1020.2 -28.9,1032.1 -28.9,1038.9 -29.5,1053.0 -29.8,1069.6 -30.6,1076.2 -27.5,1088.2 -28.1,1097.4 -35.7,1107.8 -37.6,1118.0 -41.3,1131.8 -46.6,1150.9 -50.3,1160.9 -48.0,1167.4 -46.3,1171.8 -44.4,1177.7 -40.4,1186.6 -35.7,1191.7 -33.1,1194.1 -18.0,1205.2 -11.8,1210.6 -2.0,1221.3 5.1,1228.4 14.9,1230.1 26.7,1232.8 33.4,1234.8 37.9,1233.9 39.3,1231.3 39.0,1226.0 38.5,1222.1 39.6,1219.0 43.5,1216.9 53.9,1216.7 58.4,1214.0 62.1,1213.3 62.1,1225.1 62.1,1236.3 62.1,1250.0 62.1,1265.7 62.1,1278.5 62.1,1292.2 62.1,1308.1 62.1,1309.8 60.4,1313.3 56.4,1314.6 50.8,1311.6 50.6,1308.3 49.1,1302.5 46.6,1299.5 43.3,1298.6 37.6,1300.1 29.8,1304.4 19.7,1308.1 15.7,1310.2 8.7,1310.0 1.1,1307.9 -4.5,1303.2 -6.2,1295.9 -10.9,1288.6 -17.7,1277.7 -21.1,1273.4 -25.5,1268.4 -30.0,1267.8 -35.1,1266.4 -38.2,1259.0 -41.0,1249.8 -42.7,1246.2 -45.8,1241.6 -50.0,1238.7 -59.5,1235.1 -72.7,1229.9 -89.0,1223.4 -96.9,1223.2 -105.9,1221.9 -111.2,1219.0 -114.3,1216.4 -117.9,1207.5 -123.0,1196.9 -137.3,1184.3 -140.7,1170.4 -143.5,1168.3 -148.5,1169.5 -152.5,1171.3 -153.9,1175.0 -157.8,1187.6 -160.1,1193.4 -161.5,1194.9 -164.5,1196.8 -169.6,1198.5 -177.2,1199.3 -187.6,1199.1 -200.5,1197.2 -207.5,1195.7 -226.6,1193.6 -231.9,1192.7 -239.8,1189.9 -245.4,1187.1 -263.7,1181.2 -272.1,1182.0 -276.0,1177.8 -279.7,1175.8 -284.7,1171.8 -287.0,1166.4 -290.1,1154.8 -289.2,1148.6 -287.0,1141.6 -289.5,1139.8 -292.9,1139.8 -297.6,1142.2 -306.1,1143.5 -321.5,1146.5 -327.1,1148.3 -333.3,1149.5 -337.8,1150.7 -349.6,1157.4 -353.5,1158.2 -360.5,1155.7 -363.9,1152.2 -360.5,1148.1 -359.1,1143.1 -361.4,1133.4 -365.0,1128.8 -375.4,1125.5 -379.4,1125.3 -381.0,1119.7 -383.9,1114.7 -389.7,1113.8 -392.6,1113.2 -395.6,1114.7 -397.3,1118.8 -397.6,1121.9 -402.9,1124.3 -413.6,1123.8 -424.3,1121.5 -431.9,1120.8 -436.9,1121.3 -455.7,1129.1 -461.9,1130.0 -482.4,1129.5 -493.9,1127.8 -502.3,1127.6 -508.0,1130.0 -515.3,1135.7 -521.4,1138.7 -524.3,1138.4 -525.9,1136.0 -528.5,1132.7 -529.0,1124.2 -532.1,1114.8 -530.1,1110.0 -524.3,1106.3 -522.0,1099.1 -524.0,1088.2 -524.0,1080.6 -522.3,1076.1 -524.5,1065.4 -530.7,1048.4 -539.1,1034.5 -550.1,1023.8 -557.1,1013.6 -560.5,1003.8 -559.4,980.4 -556.0,959.7 -553.5,943.3 -554.0,915.8 -561.6,897.9 -563.3,878.7 -559.1,858.1 -558.2,844.0 -561.0,836.8 -563.0,835.8 -565.5,835.1 -584.1,834.4 -609.1,833.5 -631.0,833.2 -654.5,832.9 -658.5,830.2 -660.2,825.5 -660.2,820.7 -655.4,806.1 -655.9,804.9 -664.4,804.6 -687.1,807.1 -702.3,809.4 -711.8,810.2 -728.4,814.1 -738.8,822.5 -742.2,833.1 -741.9,841.7 -742.4,848.1 -747.2,854.7 -751.1,862.3 -751.1,866.4 -753.4,886.5 -768.8,889.2 -784.3,889.2 -787.9,889.1 -807.0,884.2 -814.0,884.2 -820.2,886.8 -832.0,889.2 -843.0,891.0 -854.2,897.1 -857.3,897.6 -864.9,894.5 -875.3,894.8 -885.9,896.3 -890.7,897.0 -894.1,895.1 -903.9,880.0 -916.8,859.9 -923.8,847.1 -926.6,843.9 -931.1,839.6 -937.3,831.3 -939.8,823.4 -938.7,816.0 -942.4,806.1 -950.5,793.5 -956.1,781.5 -958.7,770.0 -959.2,760.2 -958.1,752.1 -959.5,746.0 -964.0,742.2 -966.5,737.2 -968.5,735.2 -972.1,730.5 -980.3,725.4 -989.5,722.7 -1009.2,722.7 -1035.3,722.6 -1058.9,723.0 -1085.0,723.4 -1111.4,723.8 -1118.7,724.6 -1138.9,724.9 -1155.2,723.5 -1161.1,722.7 -1171.8,722.0 -1188.4,721.9 -1197.3,722.4 -1219.0,722.4 -1220.9,722.6 -1224.3,724.0 -1233.6,722.0 -1242.5,722.7 -1247.9,720.4 -1258.8,721.9 -1264.2,723.6 -1272.9,730.1 -1285.8,733.5 -1290.6,733.3 -1293.9,732.2 -1301.5,725.0 -1307.1,718.2 -1309.4,714.4 -1306.0,713.5 -1295.9,712.0 -1288.3,711.3 -1286.6,709.4 -1285.5,688.3 -1285.2,666.8 -1288.0,663.9 -1290.6,662.3 -1290.8,660.8 -1286.9,658.1 -1281.3,655.0 -1279.6,653.5 -1273.4,647.8 -1261.4,634.7 -1252.1,631.4 -1243.7,628.0 -1242.3,626.7 -1241.1,624.1 -1237.2,624.4 -1236.1,625.6 -1234.1,628.3 -1230.8,632.2 -1224.9,636.8 -1218.7,641.9 -1215.6,642.5 -1210.8,640.0 -1204.9,636.2 -1196.5,633.5 -1194.5,630.9 -1193.4,625.5 -1192.8,619.5 -1192.0,612.6 -1190.3,611.7 -1187.2,611.0 -1181.6,613.0 -1179.1,615.0 -1174.6,615.0 -1171.8,613.2 -1166.4,609.8 -1159.4,608.4 -1152.4,605.2 -1145.4,601.0 -1142.0,600.6 -1138.6,606.0 -1135.6,609.9 -1135.0,612.2 -1138.1,616.8 -1141.5,622.9 -1138.6,630.3 -1137.8,637.7 -1138.1,642.0 -1135.6,643.8 -1133.9,644.7 -1131.3,643.6 -1126.6,643.9 -1120.7,646.2 -1114.8,645.9 -1109.2,643.2 -1098.8,632.2 -1083.6,613.2 -1071.3,601.2 -1061.1,596.4 -1054.4,590.5 -1051.0,584.0 -1045.1,579.6 -1033.1,576.0 -1024.1,572.1 -1014.8,559.0 -1002.5,535.4 -999.1,514.3 -997.1,501.6 -998.2,457.4 -999.1,442.9 -997.1,435.1 -992.6,429.7 -980.3,418.2 -971.9,408.7 -965.4,397.7 -953.0,372.5 -947.7,364.4 -945.5,360.9 -937.9,354.1 -927.5,348.3 -914.3,343.1 -893.8,325.7 -877.2,308.1 -879.5,286.8 -875.8,269.3 -866.8,246.9 -863.7,223.3 -866.8,198.4 -865.7,177.9 -857.0,154.3 -853.4,145.5 -852.2,131.1 -852.5,108.2 -841.6,76.8 -831.2,58.1 -819.7,37.1 -815.4,24.4 -809.5,7.5 -810.4,-6.1 -811.5,-21.8 -808.7,-43.2 -809.5,-55.9 -813.8,-66.9 -811.8,-73.8 -803.4,-76.6 -793.3,-87.6 -774.7,-116.3 -754.8,-130.4 -741.0,-134.7 -726.4,-134.3 -717.2,-131.7 -712.7,-127.3 -701.7,-120.5 -684.3,-111.6 -671.4,-100.3 -664.1,-89.1 -658.5,-82.8 -651.5,-80.8 -640.2,-81.6 -627.6,-79.1 -614.1,-72.7 -606.0,-70.4 -603.2,-72.0 -596.7,-71.1 -582.1,-65.9 -570.3,-68.8 -553.2,-66.6 -513.0,-57.4 -511.1,-58.9 -509.9,-59.3 -506.6,-62.9 -497.9,-81.5 -490.6,-93.0 -487.2,-97.2 -478.5,-103.3 -468.7,-104.8 -458.8,-104.2 -451.0,-101.7 -443.7,-98.6 -435.5,-98.6 -427.1,-101.5 -414.7,-107.0 -401.8,-110.5 -390.6,-114.4 -372.3,-121.2 -365.0,-124.3 -355.8,-125.6 -330.2,-119.4 -313.6,-123.5 -306.9,-122.3 -292.6,-126.7 -289.8,-129.7 -280.8,-144.7 -271.0,-149.2 -256.4,-146.9 -247.9,-144.6 -220.4,-138.1 -184.8,-131.5 -174.1,-130.4 -169.9,-129.7 -166.2,-130.6 -154.4,-139.2 -150.5,-140.4 -147.1,-140.3 -124.7,-133.4 -121.9,-127.8 -117.6,-122.3 -104.2,-112.8 -100.0,-107.5 -96.6,-101.7 -94.6,-97.1 -90.4,-93.4 -84.5,-91.1 -79.5,-88.3 -76.4,-84.2 -71.9,-79.9 -62.9,-74.2 -58.7,-74.0 -53.6,-73.2 -49.4,-71.6 -44.6,-72.2 -37.1,-75.9 -28.1,-82.3 -21.3,-86.2 -4.8,-84.7 4.5,-81.6 11.8,-77.0 17.4,-77.4 30.1,-85.7 36.5,-94.5 43.0,-96.4 52.8,-92.6 60.9,-84.3 68.0,-72.3 72.7,-67.7 79.8,-60.6 93.2,-45.3 110.9,-37.8 117.7,-34.0 119.9,-30.2 121.3,-25.2 121.6,-19.7 123.8,-17.4 128.6,-18.3 132.5,-19.1 137.0,-17.4 140.1,-13.5 141.8,-10.4 143.5,-7.0 147.7,-5.0 148.8,-0.7 145.7,4.5 142.7,9.1 138.7,18.4 136.8,27.9 139.3,31.0 142.1,33.7 143.5,36.4 144.3,39.6 144.1,43.1 138.2,56.4 134.8,67.9 134.8,73.7 142.7,78.0 153.0,77.7 156.4,80.5 159.5,84.7 162.3,86.7 166.8,86.7 169.9,88.2 171.0,91.0 174.4,94.3 177.5,97.8 176.1,102.3 175.8,105.8 168.5,115.3 151.6,133.9 115.4,168.6 115.1,168.6 103.1,172.8 96.6,179.2 92.4,189.3 81.7,197.9 73.6,201.2 72.7,203.4 72.2,212.6 73.0,226.3 69.1,232.5 63.5,244.7 60.7,252.3 58.4,253.8 55.9,257.6 54.5,269.9 53.4,274.1 49.4,299.7 50.6,307.0 47.5,319.2 47.2,326.2 46.1,334.3 43.8,341.4 44.1,352.6 45.2,371.0 44.9,373.5 41.8,375.1 36.5,379.7 31.5,382.8 27.5,383.6 20.8,391.6 15.5,399.3 11.2,406.8 10.1,410.3 11.0,420.1 11.5,431.4 10.4,436.4 8.4,439.4 -0.8,445.7 -6.7,450.1 -9.5,452.4 -11.2,456.1 -8.4,464.5 -8.1,470.7 -6.2,474.4 1.1,477.3 1.1,480.3 1.4,483.6 5.1,487.6 12.1,495.8 17.4,503.3 17.7,510.0 16.6,521.1 16.3,527.6 16.9,536.2 16.9,552.6 16.6,564.3 17.4,570.2 25.8,584.6 29.5,600.6 31.5,612.2 31.5,616.0 28.6,629.4 25.3,642.4 25.3,647.3 26.7,653.9 32.9,668.9 37.1,679.9 39.3,686.5 42.4,694.1 46.3,705.9 47.5,711.6 46.6,715.8 38.2,730.5 37.4,735.2 39.6,746.7 42.1,757.6 46.1,764.0 55.3,781.3 62.3,787.1 75.0,795.8 86.2,804.6 90.7,809.1 94.6,814.1 102.5,827.1 107.3,837.7 109.8,847.1 116.0,860.1 121.6,872.2 128.9,886.9 134.2,897.4 136.5,904.3Z" fill="#f2f3f6" stroke="#c0c6cf" stroke-width="1"/><path d="M396.2,-472.8 395.9,-472.8 381.6,-472.8 381.3,-473.0 381.1,-473.2 380.8,-473.5 380.5,-474.0 379.9,-476.3 379.7,-479.7 380.2,-485.7 381.9,-492.7 387.0,-502.7 387.0,-503.6 387.2,-504.0 387.2,-504.5 386.7,-506.3 386.1,-507.9 385.8,-510.2 386.7,-515.3 386.7,-517.0 386.7,-519.0 386.1,-520.4 382.7,-529.0 381.6,-530.4 347.9,-557.7 341.7,-565.2 340.9,-565.7 340.1,-566.1 322.9,-572.3 322.1,-573.0 322.4,-573.8 322.6,-575.1 324.9,-578.7 325.2,-579.7 325.5,-581.2 317.6,-639.0 317.6,-640.1 318.2,-640.9 318.4,-641.3 319.3,-642.5 320.4,-643.8 321.2,-646.0 321.5,-646.8 322.6,-657.3 322.6,-666.2 327.1,-681.4 327.4,-687.7 290.4,-688.3 290.1,-687.9 290.1,-687.4 290.1,-687.0 290.1,-686.5 290.1,-685.6 289.8,-683.7 289.8,-682.7 289.8,-681.6 290.4,-678.1 291.5,-675.4 291.5,-674.4 291.5,-673.5 291.5,-671.6 239.5,-671.3 260.0,-648.6 260.3,-648.2 260.9,-647.0 260.9,-646.0 261.2,-638.0 260.3,-625.4 260.3,-617.3 261.7,-612.0 267.1,-601.7 266.8,-599.7 265.6,-597.3 228.9,-566.5 227.7,-565.0 222.7,-552.2 217.9,-544.7 215.7,-542.6 207.0,-532.0 173.5,-499.1 167.9,-496.9 151.4,-496.0 142.4,-495.8 141.5,-495.6 140.1,-495.0 139.0,-494.1 137.9,-493.5 137.0,-493.8 135.6,-494.8 115.1,-513.2 78.4,-536.5 74.7,-534.3 53.9,-524.3 49.7,-521.7 47.2,-519.8 47.2,-508.7 43.5,-503.0 36.8,-496.8 18.8,-492.9 9.6,-489.5 0.0,-484.3 -1.7,-483.1 -5.3,-479.6 -12.6,-472.6 -13.2,-467.1 -12.1,-462.3 -74.1,-462.4 -78.3,-466.3 -87.0,-483.5 -87.3,-483.8 -93.5,-482.7 -150.2,-484.7 -158.4,-482.8 -174.4,-475.8 -182.5,-474.6 -190.9,-477.8 -220.7,-512.1 -227.2,-516.3 -229.7,-518.5 -233.9,-524.4 -240.4,-528.1 -242.3,-530.6 -243.2,-534.3 -242.9,-541.7 -245.1,-546.5 -249.6,-547.6 -289.8,-539.6 -295.4,-540.5 -303.8,-539.2 -306.9,-537.7 -310.3,-533.2 -310.8,-528.5 -310.8,-523.7 -311.7,-519.1 -314.8,-514.0 -326.3,-502.3 -328.8,-497.2 -328.3,-484.5 -329.1,-478.0 -330.8,-475.0 -335.6,-470.0 -337.5,-467.1 -338.4,-463.2 -338.6,-454.7 -339.5,-450.8 -345.7,-440.9 -347.1,-437.3 -347.6,-430.2 -348.5,-428.0 -366.7,-422.3 -373.5,-418.7 -377.4,-413.1 -378.5,-410.7 -386.4,-412.7 -396.2,-414.2 -415.0,-416.0 -422.6,-418.5 -426.0,-422.5 -424.8,-432.3 -426.8,-434.5 -429.9,-436.3 -431.9,-440.6 -431.6,-445.7 -421.5,-457.3 -419.5,-463.3 -417.8,-484.7 -416.7,-492.2 -417.5,-501.0 -425.4,-517.1 -432.4,-528.3 -443.7,-545.0 -448.2,-550.5 -470.9,-573.4 -473.4,-576.8 -479.0,-586.6 -476.2,-595.1 -472.9,-607.8 -472.6,-613.6 -474.0,-619.7 -479.9,-624.2 -484.9,-624.8 -487.2,-627.1 -491.7,-630.4 -495.9,-633.0 -499.8,-638.0 -502.6,-645.1 -500.7,-670.0 -502.1,-673.4 -507.7,-674.3 -509.1,-676.1 -508.8,-680.9 -512.2,-695.2 -515.5,-706.9 -513.6,-713.4 -518.6,-722.4 -527.9,-726.2 -536.6,-725.0 -545.9,-723.2 -551.5,-723.7 -555.4,-725.4 -558.2,-728.6 -559.6,-732.4 -558.2,-738.2 -553.2,-748.9 -546.7,-757.6 -533.8,-765.6 -530.1,-769.8 -528.2,-774.5 -527.9,-779.9 -528.7,-785.6 -530.1,-790.8 -534.1,-797.7 -537.7,-805.8 -537.7,-811.2 -536.0,-815.1 -532.4,-819.9 -525.7,-825.2 -524.0,-826.2 -519.5,-829.1 -515.8,-831.1 -506.3,-836.8 -504.0,-839.4 -504.9,-842.6 -507.1,-845.3 -511.1,-849.0 -511.6,-853.5 -512.7,-861.2 -514.7,-866.2 -516.1,-869.7 -513.6,-872.4 -509.7,-876.2 -504.6,-878.5 -496.7,-880.5 -493.6,-883.1 -492.8,-888.3 -493.1,-893.3 -490.3,-896.9 -486.3,-904.6 -483.5,-908.3 -478.5,-912.4 -473.1,-917.5 -470.9,-923.3 -470.3,-929.1 -473.1,-946.3 -467.2,-953.7 -459.7,-959.6 -449.0,-959.2 -432.1,-960.4 -420.9,-963.0 -412.8,-962.9 -394.2,-959.6 -392.8,-960.4 -392.3,-961.1 -391.4,-965.7 -391.4,-977.2 -391.4,-1012.0 -391.4,-1046.8 -391.4,-1081.6 -391.4,-1116.4 -391.4,-1151.2 -391.4,-1186.0 -391.4,-1220.7 -391.4,-1255.5 -391.4,-1265.2 -391.4,-1275.0 -391.4,-1284.7 -391.4,-1294.5 -372.3,-1294.5 -353.0,-1294.5 -333.9,-1294.5 -314.5,-1294.5 -314.2,-1294.6 -314.2,-1294.8 -313.9,-1294.9 -313.6,-1295.0 -313.6,-1333.9 -313.6,-1372.7 -313.6,-1411.6 -313.6,-1450.5 -283.6,-1450.5 -253.8,-1450.5 -224.1,-1450.5 -194.3,-1450.5 -164.5,-1450.5 -134.8,-1450.5 -105.0,-1450.5 -75.2,-1450.5 -45.5,-1450.5 -15.4,-1450.5 14.3,-1450.5 44.1,-1450.5 73.9,-1450.5 103.6,-1450.5 133.4,-1450.3 163.2,-1450.3 172.4,-1450.3 176.4,-1451.0 183.9,-1465.5 187.3,-1466.6 192.1,-1465.8 194.0,-1462.4 192.4,-1457.4 189.8,-1450.5 204.4,-1450.5 230.0,-1450.5 255.5,-1450.5 281.4,-1450.5 306.9,-1450.5 332.5,-1450.5 358.0,-1450.5 383.6,-1450.5 409.1,-1450.5 434.7,-1450.5 460.5,-1450.5 486.1,-1450.5 511.6,-1450.5 537.2,-1450.5 562.7,-1450.5 588.3,-1450.5 613.8,-1450.6 615.0,-1432.7 618.3,-1418.5 630.4,-1398.2 640.5,-1387.2 644.2,-1381.3 644.4,-1378.4 644.2,-1375.9 641.1,-1378.8 635.7,-1380.9 634.9,-1371.4 636.3,-1364.6 637.4,-1351.9 641.6,-1338.2 638.6,-1325.6 639.1,-1304.2 644.4,-1278.5 643.3,-1262.3 652.3,-1223.9 660.7,-1202.8 665.5,-1197.5 670.8,-1194.8 681.0,-1192.9 695.8,-1182.2 707.9,-1170.7 712.1,-1164.8 717.7,-1158.3 721.7,-1159.5 724.2,-1161.1 727.8,-1155.8 746.7,-1144.4 749.5,-1139.2 742.7,-1134.0 734.9,-1125.1 732.9,-1121.6 732.1,-1119.4 731.2,-1116.7 729.0,-1114.1 724.5,-1110.5 722.8,-1108.8 721.7,-1106.4 719.1,-1104.8 716.1,-1104.6 713.5,-1103.6 709.6,-1101.9 704.0,-1102.7 698.1,-1101.1 695.8,-1099.2 691.3,-1097.5 686.6,-1097.1 685.2,-1096.5 680.7,-1093.5 675.3,-1089.5 668.9,-1086.9 666.6,-1086.1 663.8,-1083.2 659.3,-1069.3 656.0,-1065.6 650.6,-1065.2 643.3,-1065.2 637.1,-1064.0 628.7,-1065.6 624.8,-1065.4 623.7,-1062.4 622.0,-1050.3 622.3,-1045.2 618.9,-1039.1 615.2,-1031.5 616.6,-1018.7 617.2,-1005.9 610.5,-986.7 609.3,-982.4 602.6,-967.1 599.0,-961.5 590.3,-933.1 586.6,-924.3 579.3,-915.1 581.0,-900.2 582.7,-884.2 584.4,-869.3 586.9,-846.8 580.7,-825.8 581.0,-814.5 576.5,-797.7 573.1,-789.8 570.0,-785.2 567.2,-780.5 562.5,-769.9 558.5,-756.1 556.6,-741.9 556.6,-733.6 555.7,-729.8 554.3,-727.5 545.0,-725.9 532.1,-724.3 525.1,-722.4 520.3,-719.4 514.4,-712.8 503.2,-694.2 497.0,-683.0 487.8,-667.4 476.8,-656.4 474.6,-651.2 472.6,-641.3 468.7,-625.6 465.0,-614.3 465.6,-605.4 462.2,-589.8 462.8,-582.2 458.8,-578.0 453.8,-574.0 450.1,-573.0 442.6,-577.6 436.9,-582.2 434.7,-583.5 429.6,-580.6 423.7,-576.3 416.7,-566.1 411.4,-556.0 414.5,-534.4 414.2,-529.7 412.8,-524.5 404.4,-508.4 402.4,-503.4 399.3,-493.7 396.2,-476.9 396.2,-472.8Z" fill="#f2f3f6" stroke="#c0c6cf" stroke-width="1"/><path d="M388.1,-64.0 369.8,-45.6 356.3,-32.1 354.1,-30.2 350.2,-27.7 337.3,-27.6 324.1,-29.2 311.7,-37.5 299.3,-31.1 291.5,-29.1 286.7,-28.3 275.8,-27.3 260.3,-23.9 253.0,-19.6 249.4,-16.2 246.3,-10.0 244.6,-9.3 241.8,-10.1 237.8,-12.6 229.4,-16.2 225.2,-24.1 221.3,-29.0 218.2,-31.4 205.0,-23.5 198.8,-21.6 193.5,-21.9 183.9,-26.4 173.3,-30.0 167.9,-30.0 159.8,-25.3 150.5,-18.3 145.7,-11.2 143.5,-7.0 141.8,-10.4 140.1,-13.5 137.0,-17.4 132.5,-19.1 128.6,-18.3 123.8,-17.4 121.6,-19.7 121.3,-25.2 119.9,-30.2 117.7,-34.0 110.9,-37.8 93.2,-45.3 79.8,-60.6 72.7,-67.7 68.0,-72.3 60.9,-84.3 52.8,-92.6 43.0,-96.4 36.5,-94.5 30.1,-85.7 17.4,-77.4 11.8,-77.0 4.5,-81.6 -4.8,-84.7 -21.3,-86.2 -28.1,-82.3 -37.1,-75.9 -44.6,-72.2 -49.4,-71.6 -53.6,-73.2 -58.7,-74.0 -62.9,-74.2 -71.9,-79.9 -76.4,-84.2 -79.5,-88.3 -84.5,-91.1 -90.4,-93.4 -94.6,-97.1 -96.6,-101.7 -100.0,-107.5 -104.2,-112.8 -117.6,-122.3 -121.9,-127.8 -124.7,-133.4 -130.0,-139.3 -135.9,-147.4 -137.9,-159.2 -138.1,-168.7 -139.3,-173.0 -141.8,-177.5 -144.9,-181.2 -149.4,-185.4 -160.6,-191.4 -171.8,-198.5 -177.5,-202.7 -187.6,-204.2 -194.0,-208.2 -199.1,-217.0 -201.3,-224.2 -206.4,-229.8 -208.6,-233.7 -210.0,-238.3 -205.8,-252.4 -211.7,-257.4 -220.7,-263.8 -227.2,-270.8 -231.1,-277.3 -242.6,-285.8 -267.9,-298.7 -282.2,-306.8 -290.3,-314.1 -297.1,-321.3 -297.9,-324.3 -293.4,-331.5 -292.6,-337.3 -296.2,-343.8 -311.4,-356.1 -323.5,-369.5 -332.5,-373.7 -354.4,-377.5 -360.8,-379.0 -367.3,-381.6 -373.7,-387.7 -376.0,-394.8 -372.9,-406.2 -374.9,-409.7 -378.5,-410.7 -377.4,-413.1 -373.5,-418.7 -366.7,-422.3 -348.5,-428.0 -347.6,-430.2 -347.1,-437.3 -345.7,-440.9 -339.5,-450.8 -338.6,-454.7 -338.4,-463.2 -337.5,-467.1 -335.6,-470.0 -330.8,-475.0 -329.1,-478.0 -328.3,-484.5 -328.8,-497.2 -326.3,-502.3 -314.8,-514.0 -311.7,-519.1 -310.8,-523.7 -310.8,-528.5 -310.3,-533.2 -306.9,-537.7 -303.8,-539.2 -295.4,-540.5 -289.8,-539.6 -249.6,-547.6 -245.1,-546.5 -242.9,-541.7 -243.2,-534.3 -242.3,-530.6 -240.4,-528.1 -233.9,-524.4 -229.7,-518.5 -227.2,-516.3 -220.7,-512.1 -190.9,-477.8 -182.5,-474.6 -174.4,-475.8 -158.4,-482.8 -150.2,-484.7 -93.5,-482.7 -87.3,-483.8 -87.0,-483.5 -78.3,-466.3 -74.1,-462.4 -12.1,-462.3 -13.2,-467.1 -12.6,-472.6 -5.3,-479.6 -1.7,-483.1 0.0,-484.3 9.6,-489.5 18.8,-492.9 36.8,-496.8 43.5,-503.0 47.2,-508.7 47.2,-519.8 49.7,-521.7 53.9,-524.3 74.7,-534.3 78.4,-536.5 115.1,-513.2 135.6,-494.8 137.0,-493.8 137.9,-493.5 139.0,-494.1 140.1,-495.0 141.5,-495.6 142.4,-495.8 151.4,-496.0 167.9,-496.9 173.5,-499.1 207.0,-532.0 215.7,-542.6 217.9,-544.7 222.7,-552.2 227.7,-565.0 228.9,-566.5 265.6,-597.3 266.8,-599.7 267.1,-601.7 261.7,-612.0 260.3,-617.3 260.3,-625.4 261.2,-638.0 260.9,-646.0 260.9,-647.0 260.3,-648.2 260.0,-648.6 239.5,-671.3 291.5,-671.6 291.5,-673.5 291.5,-674.4 291.5,-675.4 290.4,-678.1 289.8,-681.6 289.8,-682.7 289.8,-683.7 290.1,-685.6 290.1,-686.5 290.1,-687.0 290.1,-687.4 290.1,-687.9 290.4,-688.3 327.4,-687.7 327.1,-681.4 322.6,-666.2 322.6,-657.3 321.5,-646.8 321.2,-646.0 320.4,-643.8 319.3,-642.5 318.4,-641.3 318.2,-640.9 317.6,-640.1 317.6,-639.0 325.5,-581.2 325.2,-579.7 324.9,-578.7 322.6,-575.1 322.4,-573.8 322.1,-573.0 322.9,-572.3 340.1,-566.1 340.9,-565.7 341.7,-565.2 347.9,-557.7 381.6,-530.4 382.7,-529.0 386.1,-520.4 386.7,-519.0 386.7,-517.0 386.7,-515.3 385.8,-510.2 386.1,-507.9 386.7,-506.3 387.2,-504.5 387.2,-504.0 387.0,-503.6 387.0,-502.7 381.9,-492.7 380.2,-485.7 379.7,-479.7 379.9,-476.3 380.5,-474.0 380.8,-473.5 381.1,-473.2 381.3,-473.0 381.6,-472.8 395.9,-472.8 396.2,-472.8 395.9,-469.6 396.5,-453.9 397.1,-440.1 397.9,-417.4 397.9,-411.6 397.3,-404.2 395.7,-401.3 391.4,-397.1 386.4,-393.3 373.2,-392.4 362.2,-392.5 354.7,-393.3 344.0,-393.7 333.9,-392.9 330.2,-389.7 324.9,-378.4 317.0,-361.9 313.1,-355.0 312.0,-351.0 313.1,-348.5 318.4,-345.0 329.7,-340.1 342.6,-337.3 352.1,-336.1 358.9,-334.7 363.9,-333.1 382.5,-320.5 388.4,-314.7 391.7,-309.5 392.3,-304.0 395.1,-298.4 405.8,-287.5 411.7,-281.1 427.7,-272.8 433.8,-263.6 439.7,-259.1 445.4,-254.3 448.4,-247.1 455.5,-226.2 460.0,-215.3 464.7,-206.3 466.7,-191.7 470.4,-185.2 474.3,-177.4 480.7,-170.2 487.8,-164.6 488.9,-163.1 474.6,-149.1 458.6,-133.4 440.0,-115.1 419.5,-95.2 403.8,-79.5 388.1,-64.0Z" fill="#f2f3f6" stroke="#c0c6cf" stroke-width="1"/><path d="M488.9,-163.1 487.8,-164.6 480.7,-170.2 474.3,-177.4 470.4,-185.2 466.7,-191.7 464.7,-206.3 460.0,-215.3 455.5,-226.2 448.4,-247.1 445.4,-254.3 439.7,-259.1 433.8,-263.6 427.7,-272.8 411.7,-281.1 405.8,-287.5 395.1,-298.4 392.3,-304.0 391.7,-309.5 388.4,-314.7 382.5,-320.5 363.9,-333.1 358.9,-334.7 352.1,-336.1 342.6,-337.3 329.7,-340.1 318.4,-345.0 313.1,-348.5 312.0,-351.0 313.1,-355.0 317.0,-361.9 324.9,-378.4 330.2,-389.7 333.9,-392.9 344.0,-393.7 354.7,-393.3 362.2,-392.5 373.2,-392.4 386.4,-393.3 391.4,-397.1 395.7,-401.3 397.3,-404.2 397.9,-411.6 397.9,-417.4 397.1,-440.1 396.5,-453.9 395.9,-469.6 396.2,-472.8 396.2,-476.9 399.3,-493.7 402.4,-503.4 404.4,-508.4 412.8,-524.5 414.2,-529.7 414.5,-534.4 411.4,-556.0 416.7,-566.1 423.7,-576.3 429.6,-580.6 434.7,-583.5 436.9,-582.2 442.6,-577.6 450.1,-573.0 453.8,-574.0 458.8,-578.0 462.8,-582.2 462.2,-589.8 465.6,-605.4 465.0,-614.3 468.7,-625.6 472.6,-641.3 474.6,-651.2 476.8,-656.4 487.8,-667.4 497.0,-683.0 503.2,-694.2 514.4,-712.8 520.3,-719.4 525.1,-722.4 532.1,-724.3 545.0,-725.9 554.3,-727.5 555.7,-729.8 556.6,-733.6 556.6,-741.9 558.5,-756.1 562.5,-769.9 567.2,-780.5 570.0,-785.2 573.1,-789.8 576.5,-797.7 581.0,-814.5 580.7,-825.8 586.9,-846.8 588.3,-847.0 599.0,-850.7 609.3,-851.4 619.5,-848.7 625.9,-848.0 629.0,-849.4 631.8,-852.9 634.3,-858.5 638.6,-861.6 644.2,-862.3 651.5,-855.9 663.5,-839.0 666.6,-838.0 668.6,-838.4 674.5,-852.0 679.3,-862.5 688.0,-882.0 693.0,-893.3 697.5,-890.0 702.3,-884.3 707.3,-881.6 713.0,-880.0 715.8,-879.7 719.1,-877.4 731.5,-863.5 735.7,-860.2 741.3,-860.0 765.5,-864.4 779.8,-872.5 781.8,-875.8 785.7,-875.8 790.5,-872.1 792.4,-868.8 795.5,-864.2 801.1,-863.5 814.9,-866.7 821.4,-868.6 827.3,-867.0 834.6,-865.8 839.0,-865.8 849.7,-861.2 862.9,-862.7 869.1,-862.4 875.3,-860.4 885.7,-853.2 898.9,-844.4 918.0,-838.0 921.9,-835.4 931.1,-825.4 945.5,-806.2 964.3,-787.8 984.8,-773.3 995.7,-763.1 1003.0,-750.8 1010.3,-739.6 1017.6,-734.8 1024.4,-730.9 1031.7,-722.4 1036.7,-715.3 1043.5,-707.2 1035.9,-696.1 1025.5,-681.2 1013.7,-664.0 1010.1,-659.7 999.7,-649.3 997.7,-646.3 995.7,-638.7 995.7,-625.0 997.1,-607.4 998.3,-591.3 1004.2,-589.4 1010.6,-588.2 1018.2,-590.4 1026.9,-592.1 1038.1,-593.2 1050.2,-596.5 1057.5,-599.2 1065.1,-598.9 1071.8,-596.0 1075.2,-593.5 1080.0,-592.7 1085.9,-592.8 1084.7,-589.7 1081.4,-585.2 1077.2,-580.7 1073.5,-576.1 1065.4,-563.3 1065.1,-561.7 1066.2,-559.1 1070.4,-553.1 1075.2,-543.6 1077.7,-534.8 1079.7,-530.6 1085.3,-525.8 1093.2,-515.7 1097.4,-509.0 1106.1,-505.5 1109.2,-496.9 1115.6,-484.3 1122.7,-474.3 1129.7,-466.5 1137.3,-463.3 1140.3,-463.1 1156.4,-448.6 1168.7,-437.5 1171.8,-435.7 1194.0,-428.4 1219.3,-420.2 1239.8,-413.4 1265.6,-404.8 1291.4,-396.5 1315.3,-388.5 1349.0,-377.1 1376.2,-368.0 1397.8,-360.8 1402.3,-358.5 1427.9,-358.5 1453.7,-358.5 1480.4,-358.5 1461.0,-340.0 1439.4,-319.0 1416.4,-297.1 1401.8,-282.8 1378.5,-260.4 1359.1,-241.5 1338.9,-221.1 1320.9,-202.5 1297.3,-177.0 1282.2,-160.3 1258.3,-134.3 1243.4,-117.9 1241.2,-117.0 1219.5,-118.2 1198.8,-119.4 1172.1,-121.0 1169.3,-120.9 1161.4,-119.4 1156.6,-117.9 1137.5,-113.5 1133.9,-112.4 1118.2,-105.3 1101.9,-97.1 1093.2,-90.7 1086.7,-81.5 1083.9,-75.0 1080.8,-72.2 1075.8,-69.6 1041.8,-63.3 1031.7,-62.5 1016.0,-57.5 1007.5,-49.3 1005.0,-45.1 993.5,-45.2 973.6,-44.0 965.1,-42.6 960.9,-42.4 953.3,-42.4 946.9,-43.9 942.7,-46.2 937.6,-51.3 926.1,-61.6 917.7,-68.1 899.1,-60.6 882.6,-53.2 859.0,-42.8 845.8,-35.2 841.6,-27.6 831.2,-13.9 821.9,-5.4 818.5,-4.3 797.5,-6.2 789.9,-7.8 777.5,-9.5 760.7,-12.4 749.5,-15.6 737.1,-16.0 719.7,-17.0 708.8,-19.3 697.8,-27.1 683.5,-36.3 668.9,-45.7 653.7,-55.5 636.0,-66.6 616.6,-78.9 612.2,-80.1 610.2,-80.4 589.1,-81.0 567.2,-81.5 552.3,-81.9 547.9,-83.3 544.2,-86.1 539.7,-95.2 534.1,-101.7 527.6,-109.8 527.1,-120.9 528.8,-133.1 530.4,-137.0 529.6,-141.1 529.6,-146.5 526.2,-151.6 504.6,-157.5 501.0,-157.1 497.6,-154.9 493.4,-153.3 490.6,-154.7 488.6,-156.9 488.6,-160.6 488.9,-163.1Z" fill="#f2f3f6" stroke="#c0c6cf" stroke-width="1"/><path d="M977.5,397.4 978.0,391.1 976.6,387.8 969.3,378.2 955.6,360.3 944.9,346.9 934.2,333.1 934.2,322.0 934.2,289.1 934.0,223.4 933.7,157.6 933.4,92.0 933.4,59.1 933.1,45.7 934.2,43.5 946.6,31.4 962.6,15.5 983.9,-14.9 995.5,-31.4 1005.0,-45.1 1007.5,-49.3 1016.0,-57.5 1031.7,-62.5 1041.8,-63.3 1075.8,-69.6 1080.8,-72.2 1083.9,-75.0 1086.7,-81.5 1093.2,-90.7 1101.9,-97.1 1118.2,-105.3 1133.9,-112.4 1137.5,-113.5 1156.6,-117.9 1161.4,-119.4 1169.3,-120.9 1172.1,-121.0 1198.8,-119.4 1219.5,-118.2 1241.2,-117.0 1243.4,-117.9 1258.3,-134.3 1282.2,-160.3 1297.3,-177.0 1320.9,-202.5 1338.9,-221.1 1359.1,-241.5 1378.5,-260.4 1401.8,-282.8 1416.4,-297.1 1439.4,-319.0 1461.0,-340.0 1480.4,-358.5 1491.9,-376.1 1503.1,-393.3 1515.5,-411.8 1530.1,-434.1 1543.9,-455.0 1555.1,-472.0 1555.1,-480.8 1555.1,-499.8 1555.1,-512.8 1555.1,-548.7 1555.1,-570.5 1555.1,-591.4 1555.1,-613.0 1564.9,-613.9 1590.2,-619.5 1610.1,-628.0 1646.6,-634.1 1674.4,-649.5 1679.2,-657.0 1687.6,-666.5 1699.7,-669.6 1730.9,-658.5 1735.9,-657.7 1734.0,-650.9 1733.1,-644.1 1726.7,-632.2 1722.5,-618.9 1725.5,-598.8 1726.9,-566.0 1726.1,-561.2 1724.1,-556.6 1723.3,-552.9 1719.9,-551.6 1718.5,-549.5 1721.0,-548.7 1730.6,-552.2 1730.6,-556.1 1731.2,-558.0 1739.0,-553.7 1744.9,-551.9 1746.3,-547.7 1746.0,-545.0 1737.1,-546.2 1732.3,-548.4 1718.8,-544.9 1710.7,-540.9 1708.1,-534.6 1706.2,-508.8 1703.1,-492.2 1702.2,-470.3 1691.6,-455.6 1687.6,-445.3 1671.6,-424.8 1662.9,-407.2 1660.4,-398.5 1646.1,-374.4 1626.4,-355.8 1619.4,-332.3 1612.4,-317.4 1604.5,-304.0 1587.1,-280.0 1578.4,-263.5 1567.2,-234.6 1563.8,-216.4 1532.6,-163.4 1500.3,-121.2 1480.1,-85.6 1443.9,-44.3 1394.5,9.0 1329.9,72.2 1312.5,85.1 1241.7,124.1 1195.9,156.7 1172.6,178.9 1147.9,198.3 1128.6,216.7 1069.6,279.0 1063.4,284.8 1057.8,290.3 1050.2,300.8 1045.2,305.0 1031.1,322.7 1022.4,332.0 1012.3,341.1 1008.4,347.5 1005.3,354.9 1001.9,359.1 993.2,376.7 985.3,388.4 977.5,397.4Z" fill="#f2f3f6" stroke="#c0c6cf" stroke-width="1"/><path d="M1555.1,-613.0 1555.1,-591.4 1555.1,-570.5 1555.1,-548.7 1555.1,-512.8 1555.1,-499.8 1555.1,-480.8 1555.1,-472.0 1543.9,-455.0 1530.1,-434.1 1515.5,-411.8 1503.1,-393.3 1491.9,-376.1 1480.4,-358.5 1453.7,-358.5 1427.9,-358.5 1402.3,-358.5 1397.8,-360.8 1376.2,-368.0 1349.0,-377.1 1315.3,-388.5 1291.4,-396.5 1265.6,-404.8 1239.8,-413.4 1219.3,-420.2 1194.0,-428.4 1171.8,-435.7 1168.7,-437.5 1156.4,-448.6 1140.3,-463.1 1137.3,-463.3 1129.7,-466.5 1122.7,-474.3 1115.6,-484.3 1109.2,-496.9 1106.1,-505.5 1097.4,-509.0 1093.2,-515.7 1085.3,-525.8 1079.7,-530.6 1077.7,-534.8 1075.2,-543.6 1070.4,-553.1 1066.2,-559.1 1065.1,-561.7 1065.4,-563.3 1073.5,-576.1 1077.2,-580.7 1081.4,-585.2 1084.7,-589.7 1085.9,-592.8 1095.7,-608.0 1104.4,-621.4 1111.1,-631.8 1126.3,-619.9 1141.2,-595.5 1158.6,-576.0 1182.5,-557.7 1191.7,-551.6 1200.2,-548.4 1243.7,-548.9 1274.3,-565.4 1302.4,-577.5 1311.6,-579.9 1327.9,-576.7 1345.9,-575.7 1361.9,-572.1 1370.0,-573.0 1402.1,-587.0 1422.0,-600.6 1435.5,-606.3 1441.1,-606.5 1459.6,-601.6 1483.5,-603.6 1516.3,-615.4 1526.7,-617.8 1534.6,-618.0 1552.6,-612.7 1555.1,-613.0Z" fill="#f2f3f6" stroke="#c0c6cf" stroke-width="1"/><path d="M1111.1,-631.8 1104.4,-621.4 1095.7,-608.0 1085.9,-592.8 1080.0,-592.7 1075.2,-593.5 1071.8,-596.0 1065.1,-598.9 1057.5,-599.2 1050.2,-596.5 1038.1,-593.2 1026.9,-592.1 1018.2,-590.4 1010.6,-588.2 1004.2,-589.4 998.3,-591.3 997.1,-607.4 995.7,-625.0 995.7,-638.7 997.7,-646.3 999.7,-649.3 1010.1,-659.7 1013.7,-664.0 1025.5,-681.2 1035.9,-696.1 1043.5,-707.2 1046.0,-709.4 1049.1,-711.4 1051.3,-710.9 1066.2,-700.2 1069.0,-700.4 1073.8,-703.8 1078.3,-715.2 1081.7,-719.4 1082.8,-719.3 1092.3,-722.5 1101.0,-726.0 1102.2,-722.4 1115.4,-706.9 1119.6,-699.4 1124.1,-685.6 1121.5,-678.0 1118.2,-673.0 1113.1,-668.5 1095.7,-657.5 1076.3,-650.5 1064.0,-636.5 1054.7,-637.5 1056.1,-632.2 1059.5,-631.5 1064.8,-632.6 1075.5,-636.7 1085.0,-638.6 1095.4,-638.7 1104.7,-636.9 1111.1,-631.8Z" fill="#f2f3f6" stroke="#c0c6cf" stroke-width="1"/><path d="M109.0,1485.3 97.4,1485.5 77.5,1485.5 57.0,1485.5 37.9,1489.5 22.5,1495.7 3.9,1505.5 -2.2,1509.3 -6.7,1512.3 -9.8,1516.1 -11.2,1524.3 -11.2,1537.0 -12.9,1546.2 -18.8,1554.6 -46.9,1564.9 -65.1,1573.2 -83.4,1583.1 -96.9,1595.9 -106.4,1611.7 -121.9,1631.1 -137.6,1648.1 -154.4,1665.9 -173.2,1672.4 -189.0,1671.0 -208.1,1663.6 -223.2,1662.3 -234.2,1666.9 -244.6,1665.4 -254.1,1658.1 -262.0,1655.5 -268.4,1657.4 -276.9,1657.1 -291.7,1653.1 -304.9,1640.6 -312.0,1635.5 -317.3,1633.6 -332.7,1631.6 -368.7,1628.7 -372.3,1629.4 -387.2,1631.8 -405.8,1634.9 -421.5,1637.9 -438.3,1641.2 -453.8,1628.2 -471.5,1613.5 -489.7,1597.0 -503.5,1584.2 -510.2,1576.7 -522.3,1567.0 -531.0,1562.2 -534.4,1559.8 -542.8,1533.7 -547.6,1509.7 -547.6,1491.7 -547.6,1466.6 -547.6,1441.6 -547.6,1416.5 -547.6,1391.6 -547.6,1366.6 -547.6,1341.5 -547.6,1316.5 -547.6,1291.4 -547.6,1279.2 -529.6,1279.2 -509.4,1279.2 -488.0,1279.2 -464.7,1279.2 -441.7,1279.2 -418.4,1279.2 -402.1,1279.2 -397.9,1279.1 -392.8,1278.3 -392.6,1275.8 -399.3,1263.5 -398.7,1259.2 -397.0,1250.8 -394.2,1243.6 -390.6,1234.1 -390.3,1228.6 -393.1,1210.4 -392.8,1200.3 -392.0,1189.7 -391.2,1179.7 -392.3,1172.8 -391.2,1169.0 -388.9,1163.6 -387.8,1157.5 -386.4,1154.8 -386.7,1152.3 -388.1,1147.9 -389.2,1137.6 -390.9,1123.4 -392.6,1113.2 -389.7,1113.8 -383.9,1114.7 -381.0,1119.7 -379.4,1125.3 -375.4,1125.5 -365.0,1128.8 -361.4,1133.4 -359.1,1143.1 -360.5,1148.1 -363.9,1152.2 -360.5,1155.7 -353.5,1158.2 -349.6,1157.4 -337.8,1150.7 -333.3,1149.5 -327.1,1148.3 -321.5,1146.5 -306.1,1143.5 -297.6,1142.2 -292.9,1139.8 -289.5,1139.8 -287.0,1141.6 -289.2,1148.6 -290.1,1154.8 -287.0,1166.4 -284.7,1171.8 -279.7,1175.8 -276.0,1177.8 -272.1,1182.0 -263.7,1181.2 -245.4,1187.1 -239.8,1189.9 -231.9,1192.7 -226.6,1193.6 -207.5,1195.7 -200.5,1197.2 -187.6,1199.1 -177.2,1199.3 -169.6,1198.5 -164.5,1196.8 -161.5,1194.9 -160.1,1193.4 -157.8,1187.6 -153.9,1175.0 -152.5,1171.3 -148.5,1169.5 -143.5,1168.3 -140.7,1170.4 -137.3,1184.3 -123.0,1196.9 -117.9,1207.5 -114.3,1216.4 -111.2,1219.0 -105.9,1221.9 -96.9,1223.2 -89.0,1223.4 -72.7,1229.9 -59.5,1235.1 -50.0,1238.7 -45.8,1241.6 -42.7,1246.2 -41.0,1249.8 -38.2,1259.0 -35.1,1266.4 -30.0,1267.8 -25.5,1268.4 -21.1,1273.4 -17.7,1277.7 -10.9,1288.6 -6.2,1295.9 -4.5,1303.2 1.1,1307.9 8.7,1310.0 15.7,1310.2 19.7,1308.1 29.8,1304.4 37.6,1300.1 43.3,1298.6 46.6,1299.5 49.1,1302.5 50.6,1308.3 50.8,1311.6 56.4,1314.6 60.4,1313.3 62.1,1309.8 62.1,1308.1 62.1,1292.2 62.1,1278.5 62.1,1265.7 62.1,1250.0 62.1,1236.3 62.1,1225.1 62.1,1213.3 58.4,1214.0 53.9,1216.7 43.5,1216.9 39.6,1219.0 38.5,1222.1 39.0,1226.0 39.3,1231.3 37.9,1233.9 33.4,1234.8 26.7,1232.8 14.9,1230.1 5.1,1228.4 -2.0,1221.3 -11.8,1210.6 -18.0,1205.2 -33.1,1194.1 -35.7,1191.7 -40.4,1186.6 -44.4,1177.7 -46.3,1171.8 -48.0,1167.4 -50.3,1160.9 -46.6,1150.9 -41.3,1131.8 -37.6,1118.0 -35.7,1107.8 -28.1,1097.4 -27.5,1088.2 -30.6,1076.2 -29.8,1069.6 -29.5,1053.0 -28.9,1038.9 -28.9,1032.1 -30.9,1020.2 -35.9,1006.9 -46.9,988.6 -46.9,984.7 -40.1,980.4 -30.0,972.8 -25.0,968.3 -18.8,962.0 -16.0,958.7 -10.1,950.5 -6.5,943.8 -5.0,935.3 -7.9,927.0 -2.2,925.4 16.9,922.6 37.6,919.4 59.8,916.1 82.0,912.7 103.6,909.3 123.0,906.3 136.5,904.3 138.7,910.0 142.7,919.3 147.7,926.2 153.6,932.2 158.7,935.8 162.0,936.9 183.4,936.5 191.0,940.2 197.7,944.9 199.4,952.1 203.9,956.5 208.6,960.1 210.6,960.5 214.0,959.7 219.9,959.5 225.2,961.1 227.7,962.6 228.0,968.7 229.4,971.4 236.7,972.4 244.0,972.9 251.3,977.0 258.9,977.7 267.9,979.4 272.1,983.8 281.4,988.4 292.9,992.3 301.3,996.9 305.8,998.9 306.1,1001.1 308.0,1005.0 310.3,1007.7 310.6,1011.9 311.7,1015.7 315.1,1016.7 317.6,1016.9 320.1,1014.2 323.5,1014.2 327.1,1016.0 328.5,1020.5 331.6,1026.4 336.1,1030.5 339.5,1034.4 338.4,1041.6 336.4,1048.2 342.6,1054.6 351.0,1060.8 353.3,1063.5 353.8,1072.6 355.2,1075.7 360.8,1083.3 363.6,1088.3 363.4,1091.3 348.2,1106.3 343.4,1107.8 338.9,1108.6 334.7,1111.7 332.5,1114.8 333.3,1116.6 335.0,1121.7 338.4,1129.9 341.7,1135.6 338.9,1142.6 333.0,1154.6 330.2,1155.7 329.7,1164.9 331.6,1168.2 334.4,1170.9 335.6,1177.1 335.8,1185.7 335.6,1192.4 331.6,1210.0 338.7,1225.2 340.9,1227.0 350.4,1227.0 351.9,1228.3 349.6,1232.6 345.7,1237.1 343.1,1239.4 331.1,1244.6 313.7,1250.4 310.0,1255.9 307.8,1263.9 309.7,1268.7 312.0,1271.4 311.1,1278.4 309.7,1285.7 310.3,1291.5 309.5,1296.7 307.2,1299.3 304.1,1307.0 300.5,1314.8 297.4,1318.4 293.2,1322.1 286.4,1325.3 286.4,1326.8 294.3,1330.4 296.3,1332.8 296.8,1334.6 295.1,1336.2 293.7,1338.5 297.4,1341.0 301.6,1343.0 305.8,1348.1 309.5,1355.5 310.6,1357.9 311.4,1359.0 312.8,1359.1 315.3,1358.0 320.1,1354.0 323.5,1352.6 327.7,1358.3 310.9,1363.9 302.2,1366.7 277.2,1375.1 255.3,1382.4 249.6,1383.8 238.1,1387.4 232.5,1389.6 212.9,1395.9 204.7,1399.1 198.0,1402.2 181.7,1406.9 166.2,1411.4 149.4,1416.0 130.6,1421.1 119.9,1424.8 112.9,1428.0 96.0,1434.4 95.2,1436.0 95.5,1440.4 97.7,1449.4 101.9,1457.7 105.3,1462.4 107.6,1474.6 109.0,1485.3Z" fill="#f2f3f6" stroke="#c0c6cf" stroke-width="1"/><path d="M446.2,1209.9 443.4,1210.4 441.7,1209.1 442.0,1204.9 443.1,1201.9 445.6,1201.4 447.6,1202.2 449.0,1203.7 449.0,1205.8 448.2,1208.1 446.2,1209.9Z M440.0,1202.3 438.6,1206.4 435.3,1206.4 432.2,1202.7 433.3,1199.9 436.1,1198.9 438.6,1200.0 440.0,1202.3Z M327.7,1358.3 323.5,1352.6 320.1,1354.0 315.3,1358.0 312.8,1359.1 311.4,1359.0 310.6,1357.9 309.5,1355.5 305.8,1348.1 301.6,1343.0 297.4,1341.0 293.7,1338.5 295.1,1336.2 296.8,1334.6 296.3,1332.8 294.3,1330.4 286.4,1326.8 286.4,1325.3 293.2,1322.1 297.4,1318.4 300.5,1314.8 304.1,1307.0 307.2,1299.3 309.5,1296.7 310.3,1291.5 309.7,1285.7 311.1,1278.4 312.0,1271.4 309.7,1268.7 307.8,1263.9 310.0,1255.9 313.7,1250.4 331.1,1244.6 343.1,1239.4 345.7,1237.1 349.6,1232.6 351.9,1228.3 350.4,1227.0 340.9,1227.0 338.7,1225.2 331.6,1210.0 335.6,1192.4 335.8,1185.7 335.6,1177.1 334.4,1170.9 331.6,1168.2 329.7,1164.9 330.2,1155.7 333.0,1154.6 338.9,1142.6 341.7,1135.6 338.4,1129.9 335.0,1121.7 333.3,1116.6 332.5,1114.8 334.7,1111.7 338.9,1108.6 343.4,1107.8 348.2,1106.3 363.4,1091.3 363.6,1088.3 360.8,1083.3 355.2,1075.7 353.8,1072.6 353.3,1063.5 351.0,1060.8 342.6,1054.6 336.4,1048.2 338.4,1041.6 339.5,1034.4 336.1,1030.5 331.6,1026.4 328.5,1020.5 327.1,1016.0 323.5,1014.2 320.1,1014.2 317.6,1016.9 315.1,1016.7 311.7,1015.7 310.6,1011.9 310.3,1007.7 308.0,1005.0 306.1,1001.1 305.8,998.9 307.2,998.4 310.0,998.0 322.1,1005.8 329.7,1006.2 337.8,1007.7 344.8,1014.6 348.5,1015.6 353.3,1014.6 366.5,1013.8 371.8,1014.9 378.5,1019.0 381.3,1019.5 385.5,1019.6 386.4,1018.6 387.0,1016.1 386.1,1011.3 387.0,1008.7 389.8,1005.8 396.8,1009.1 415.0,1024.2 415.6,1026.1 427.1,1041.2 430.8,1047.5 430.8,1050.9 434.4,1064.1 435.3,1070.2 434.4,1074.8 434.7,1078.5 436.1,1084.0 435.5,1086.1 439.7,1094.0 441.7,1100.6 442.0,1107.0 440.9,1113.3 437.2,1122.4 436.7,1126.1 437.5,1129.5 439.7,1133.1 443.7,1137.0 446.8,1141.8 448.7,1147.3 450.4,1149.9 452.4,1149.8 456.3,1150.6 459.4,1153.8 463.1,1159.4 464.2,1165.6 464.7,1168.3 454.3,1168.1 441.4,1169.1 438.3,1171.6 437.2,1177.0 433.3,1188.2 431.0,1192.4 426.0,1199.9 419.2,1210.6 417.8,1214.1 418.1,1217.6 422.1,1232.1 426.3,1247.3 427.7,1253.2 430.8,1273.4 432.4,1287.6 432.4,1296.0 433.8,1307.3 437.8,1313.3 441.7,1317.1 456.3,1319.4 460.8,1322.3 468.9,1329.3 487.2,1349.1 497.3,1361.8 506.0,1372.9 521.7,1393.5 534.1,1409.5 535.5,1424.5 537.7,1426.8 533.5,1437.9 530.7,1455.9 532.7,1467.8 531.8,1488.3 529.6,1510.0 526.8,1517.8 523.4,1520.7 514.7,1523.0 495.9,1525.7 493.1,1528.2 490.9,1532.4 486.9,1542.5 482.4,1552.6 481.0,1556.9 481.9,1557.9 485.8,1563.0 490.0,1576.2 490.6,1598.8 489.2,1600.4 483.8,1601.4 477.7,1601.1 475.1,1599.9 473.2,1597.3 471.5,1592.6 475.4,1589.2 476.8,1583.4 474.3,1578.2 469.2,1577.1 462.8,1572.5 449.3,1557.5 437.8,1546.9 431.3,1538.1 424.3,1534.6 422.6,1532.4 420.9,1528.8 420.9,1523.4 421.5,1519.4 419.2,1515.1 412.5,1508.2 409.4,1504.4 409.1,1499.9 411.9,1495.5 417.8,1490.2 422.3,1479.4 424.0,1472.5 432.2,1458.4 433.3,1446.2 433.6,1436.4 433.0,1429.1 430.8,1414.2 429.4,1403.8 419.2,1390.4 415.9,1389.0 406.3,1390.3 397.9,1392.3 394.0,1395.0 387.5,1395.1 371.5,1397.6 366.2,1398.5 363.4,1401.0 361.7,1401.5 351.3,1391.1 342.3,1379.8 331.1,1360.6 327.7,1358.3Z" fill="#f2f3f6" stroke="#c0c6cf" stroke-width="1"/><path d="M178.3,2012.6 189.5,2004.5 200.5,1993.2 213.4,1980.0 225.2,1968.0 235.3,1957.6 249.1,1943.4 262.8,1929.3 266.2,1927.6 267.6,1926.3 261.7,1913.9 271.3,1899.3 271.5,1889.9 271.3,1880.8 272.4,1876.6 275.2,1873.0 286.4,1865.4 294.8,1853.4 301.9,1842.1 311.4,1824.0 312.3,1819.8 312.5,1815.3 309.7,1809.2 303.6,1799.3 298.8,1790.8 294.6,1777.5 298.8,1766.0 300.2,1759.1 300.2,1755.3 298.5,1751.8 293.7,1749.1 289.8,1747.3 288.7,1742.6 288.7,1736.9 290.4,1733.8 300.7,1728.8 303.0,1726.1 304.1,1723.0 304.4,1718.6 307.5,1707.7 311.4,1697.2 311.7,1693.6 310.3,1690.3 309.2,1684.5 308.6,1675.7 308.3,1650.9 310.6,1625.3 309.7,1610.8 303.0,1594.2 302.4,1582.1 307.2,1573.7 308.0,1568.7 304.4,1568.2 297.1,1567.6 291.8,1566.0 283.6,1559.1 269.3,1553.4 253.0,1548.1 229.4,1546.7 209.8,1529.9 194.3,1527.2 189.3,1525.1 174.4,1515.1 151.4,1514.2 127.2,1513.1 112.0,1512.8 109.8,1511.4 109.0,1497.6 109.0,1485.3 107.6,1474.6 105.3,1462.4 101.9,1457.7 97.7,1449.4 95.5,1440.4 95.2,1436.0 96.0,1434.4 112.9,1428.0 119.9,1424.8 130.6,1421.1 149.4,1416.0 166.2,1411.4 181.7,1406.9 198.0,1402.2 204.7,1399.1 212.9,1395.9 232.5,1389.6 238.1,1387.4 249.6,1383.8 255.3,1382.4 277.2,1375.1 302.2,1366.7 310.9,1363.9 327.7,1358.3 331.1,1360.6 342.3,1379.8 351.3,1391.1 361.7,1401.5 363.4,1401.0 366.2,1398.5 371.5,1397.6 387.5,1395.1 394.0,1395.0 397.9,1392.3 406.3,1390.3 415.9,1389.0 419.2,1390.4 429.4,1403.8 430.8,1414.2 433.0,1429.1 433.6,1436.4 433.3,1446.2 432.2,1458.4 424.0,1472.5 422.3,1479.4 417.8,1490.2 411.9,1495.5 409.1,1499.9 409.4,1504.4 412.5,1508.2 419.2,1515.1 421.5,1519.4 420.9,1523.4 420.9,1528.8 422.6,1532.4 424.3,1534.6 431.3,1538.1 437.8,1546.9 449.3,1557.5 462.8,1572.5 469.2,1577.1 474.3,1578.2 476.8,1583.4 475.4,1589.2 471.5,1592.6 473.2,1597.3 475.1,1599.9 477.7,1601.1 483.8,1601.4 489.2,1600.4 490.6,1598.8 490.0,1576.2 485.8,1563.0 481.9,1557.9 481.0,1556.9 482.4,1552.6 486.9,1542.5 490.9,1532.4 493.1,1528.2 495.9,1525.7 514.7,1523.0 523.4,1520.7 526.8,1517.8 529.6,1510.0 531.8,1488.3 532.7,1467.8 530.7,1455.9 533.5,1437.9 537.7,1426.8 535.5,1424.5 534.1,1409.5 521.7,1393.5 506.0,1372.9 497.3,1361.8 487.2,1349.1 468.9,1329.3 460.8,1322.3 456.3,1319.4 441.7,1317.1 437.8,1313.3 433.8,1307.3 432.4,1296.0 432.4,1287.6 430.8,1273.4 427.7,1253.2 426.3,1247.3 422.1,1232.1 418.1,1217.6 417.8,1214.1 419.2,1210.6 426.0,1199.9 431.0,1192.4 433.3,1188.2 437.2,1177.0 438.3,1171.6 441.4,1169.1 454.3,1168.1 464.7,1168.3 482.1,1168.1 500.7,1168.7 503.2,1169.1 507.4,1170.4 511.9,1170.2 517.2,1168.6 522.9,1164.7 529.3,1158.6 539.1,1158.7 552.3,1165.1 559.6,1170.8 561.1,1175.5 569.8,1178.3 586.3,1179.0 598.7,1176.6 606.3,1170.8 614.1,1167.8 622.3,1167.4 628.7,1169.4 632.9,1173.7 641.1,1176.7 653.2,1178.6 666.4,1175.9 680.7,1168.5 688.8,1160.7 690.8,1152.8 693.0,1147.9 695.8,1146.3 703.4,1145.2 715.8,1144.9 726.4,1147.5 740.5,1155.5 749.2,1150.2 764.1,1141.1 779.0,1136.2 793.3,1136.2 805.1,1132.7 814.3,1125.9 823.9,1121.5 834.3,1119.7 843.8,1116.3 857.0,1109.3 871.1,1098.9 885.1,1088.2 894.1,1081.4 898.3,1089.5 905.6,1096.8 901.4,1101.0 896.0,1104.8 904.5,1110.0 898.3,1117.7 897.5,1123.1 899.1,1125.1 900.5,1128.4 896.3,1137.2 890.7,1144.0 889.3,1149.1 894.4,1158.3 891.8,1174.4 896.6,1189.0 897.7,1196.5 899.4,1201.5 897.2,1210.6 897.7,1225.6 898.9,1231.8 896.0,1239.5 900.8,1242.3 903.3,1250.8 902.5,1260.4 901.1,1265.5 893.0,1271.8 891.8,1274.2 892.1,1277.9 902.2,1278.0 902.8,1283.7 901.9,1288.2 902.5,1296.7 901.1,1302.1 903.3,1308.3 900.5,1315.2 901.7,1320.7 901.7,1327.6 904.2,1345.2 904.5,1366.8 905.0,1370.2 908.7,1372.7 913.7,1373.9 913.7,1379.8 907.8,1387.7 907.6,1392.4 908.4,1399.2 914.6,1390.0 918.5,1390.1 921.9,1393.6 921.3,1398.9 922.4,1401.6 921.9,1406.8 923.8,1413.3 923.0,1419.0 918.5,1422.9 912.6,1429.7 911.5,1436.2 912.1,1440.2 908.1,1441.6 906.2,1444.2 909.0,1450.2 908.7,1455.5 901.7,1472.2 882.6,1494.8 874.1,1502.8 866.6,1511.6 866.6,1515.2 865.7,1518.4 856.7,1530.8 847.2,1532.8 841.6,1536.2 845.8,1547.2 839.6,1549.8 828.7,1558.4 798.9,1575.0 794.1,1578.9 786.5,1589.0 776.7,1591.6 771.1,1594.5 761.0,1595.5 757.6,1594.7 754.2,1595.1 751.4,1597.3 731.8,1604.5 713.2,1610.2 708.8,1612.7 705.7,1616.3 689.4,1621.8 663.8,1635.8 643.0,1648.9 627.9,1662.2 624.0,1664.2 619.2,1668.7 617.8,1675.4 616.1,1679.2 604.9,1693.2 588.0,1709.6 584.9,1714.2 578.2,1723.2 577.6,1729.2 571.4,1731.1 566.4,1725.4 564.4,1736.4 560.2,1737.2 555.7,1734.9 544.5,1740.4 534.7,1746.7 518.9,1759.9 496.5,1785.8 463.9,1810.6 459.4,1811.2 456.6,1811.2 446.2,1802.6 440.6,1801.9 445.6,1807.0 449.0,1811.4 448.2,1819.6 448.4,1832.2 444.5,1856.7 445.1,1862.2 449.6,1869.1 458.3,1877.5 466.7,1888.2 477.1,1918.5 477.9,1934.1 488.9,1954.0 489.2,1962.6 493.7,1984.2 493.4,2001.5 492.5,2012.2 497.9,2016.7 499.8,2012.6 499.3,2005.8 500.7,1995.0 503.5,1990.3 506.6,1990.9 507.4,1996.1 509.4,2000.5 510.2,2004.7 510.2,2010.6 506.3,2032.5 507.4,2041.4 512.8,2056.3 506.6,2073.7 497.3,2114.4 497.0,2121.5 499.0,2124.6 504.0,2125.5 505.7,2120.4 508.8,2120.4 510.2,2123.5 506.3,2142.3 502.1,2150.6 487.8,2170.8 480.2,2179.4 467.3,2187.9 437.5,2201.2 377.1,2220.4 353.3,2229.9 339.2,2235.6 308.9,2253.5 295.7,2265.4 290.4,2279.2 285.0,2285.6 280.0,2293.6 284.5,2300.3 289.0,2305.6 294.0,2309.0 296.8,2312.0 300.2,2314.1 303.8,2303.3 305.5,2299.9 308.6,2299.7 306.9,2312.9 303.3,2358.0 303.0,2359.5 294.6,2359.5 280.0,2359.9 271.3,2360.2 261.4,2360.5 249.6,2358.2 242.9,2358.7 242.3,2333.8 240.1,2328.2 237.8,2320.2 237.3,2315.1 238.7,2310.0 239.3,2301.8 238.7,2294.7 231.7,2291.0 230.0,2289.9 228.3,2284.2 227.7,2275.6 232.8,2264.5 232.5,2243.2 233.1,2235.7 232.8,2221.0 232.8,2203.0 232.8,2187.0 232.8,2173.2 231.4,2166.6 230.3,2162.9 226.9,2155.6 223.0,2140.3 218.5,2128.8 212.6,2121.2 210.6,2117.1 208.6,2111.8 203.0,2102.4 198.5,2096.8 197.4,2092.4 197.4,2081.0 192.4,2060.5 188.7,2045.5 183.1,2029.4 179.4,2018.6 178.9,2016.7 178.3,2012.6Z M440.0,1202.3 438.6,1200.0 436.1,1198.9 433.3,1199.9 432.2,1202.7 435.3,1206.4 438.6,1206.4 440.0,1202.3Z M446.2,1209.9 448.2,1208.1 449.0,1205.8 449.0,1203.7 447.6,1202.2 445.6,1201.4 443.1,1201.9 442.0,1204.9 441.7,1209.1 443.4,1210.4 446.2,1209.9Z" fill="#f2f3f6" stroke="#c0c6cf" stroke-width="1"/><path d="M121.3,452.4 119.6,454.5 112.6,469.1 111.2,471.2 111.8,472.6 114.9,475.3 113.2,479.9 112.3,481.1 111.2,485.5 111.8,489.4 113.5,490.9 118.2,492.8 125.2,494.1 133.4,497.4 138.7,498.1 140.1,500.4 139.8,504.6 141.3,508.3 141.3,514.8 139.6,520.7 131.1,523.4 126.9,526.4 125.5,527.8 126.6,529.5 127.2,531.9 119.3,537.6 111.2,545.2 109.2,550.2 107.6,556.1 105.3,560.1 98.8,565.5 92.7,576.6 89.6,583.9 73.9,601.2 60.1,609.8 55.9,612.7 31.5,612.2 29.5,600.6 25.8,584.6 17.4,570.2 16.6,564.3 16.9,552.6 16.9,536.2 16.3,527.6 16.6,521.1 17.7,510.0 17.4,503.3 12.1,495.8 5.1,487.6 1.4,483.6 1.1,480.3 1.1,477.3 2.3,473.0 5.1,468.3 7.9,467.7 15.5,469.6 23.0,473.7 27.2,482.9 30.3,484.2 36.2,484.2 50.8,483.0 54.5,483.2 61.2,481.0 67.7,477.1 69.6,473.0 71.1,463.9 72.5,447.7 75.8,447.5 85.1,453.2 87.1,453.6 89.0,453.5 92.4,450.7 96.3,448.2 99.1,448.4 109.8,445.7 115.7,450.5 119.3,452.0 121.3,452.4Z" fill="#f2f3f6" stroke="#c0c6cf" stroke-width="1"/><path d="M818.8,746.8 824.7,763.5 823.9,766.6 819.7,768.5 817.4,768.6 814.9,765.9 812.9,760.3 809.8,761.7 804.5,754.9 798.9,754.7 794.1,746.7 796.1,739.8 795.0,727.8 800.9,721.7 804.2,711.5 807.9,718.5 808.7,729.3 813.8,742.2 818.0,746.1 818.8,746.8Z M847.5,647.8 848.0,651.9 846.6,655.5 846.9,667.3 846.6,675.2 842.1,686.0 838.5,689.8 835.1,688.7 832.6,686.9 830.3,684.0 834.6,664.1 832.6,649.6 841.0,650.9 847.5,647.8Z M305.8,998.9 301.3,996.9 292.9,992.3 281.4,988.4 272.1,983.8 267.9,979.4 258.9,977.7 251.3,977.0 244.0,972.9 236.7,972.4 229.4,971.4 228.0,968.7 227.7,962.6 225.2,961.1 219.9,959.5 214.0,959.7 210.6,960.5 208.6,960.1 203.9,956.5 199.4,952.1 197.7,944.9 191.0,940.2 183.4,936.5 162.0,936.9 158.7,935.8 153.6,932.2 147.7,926.2 142.7,919.3 138.7,910.0 136.5,904.3 134.2,897.4 128.9,886.9 121.6,872.2 116.0,860.1 109.8,847.1 107.3,837.7 102.5,827.1 94.6,814.1 90.7,809.1 86.2,804.6 75.0,795.8 62.3,787.1 55.3,781.3 46.1,764.0 42.1,757.6 39.6,746.7 37.4,735.2 38.2,730.5 46.6,715.8 47.5,711.6 46.3,705.9 42.4,694.1 39.3,686.5 37.1,679.9 32.9,668.9 26.7,653.9 25.3,647.3 25.3,642.4 28.6,629.4 31.5,616.0 31.5,612.2 55.9,612.7 60.1,609.8 73.9,601.2 89.6,583.9 92.7,576.6 98.8,565.5 105.3,560.1 107.6,556.1 109.2,550.2 111.2,545.2 119.3,537.6 127.2,531.9 126.6,529.5 125.5,527.8 126.9,526.4 131.1,523.4 139.6,520.7 141.3,514.8 141.3,508.3 139.8,504.6 140.1,500.4 138.7,498.1 133.4,497.4 125.2,494.1 118.2,492.8 113.5,490.9 111.8,489.4 111.2,485.5 112.3,481.1 113.2,479.9 114.9,475.3 111.8,472.6 111.2,471.2 112.6,469.1 119.6,454.5 121.3,452.4 124.4,452.1 129.2,450.4 133.7,449.6 137.6,450.3 140.1,449.4 142.7,447.5 144.6,441.9 146.3,432.4 145.5,424.7 141.8,418.7 141.0,409.5 142.7,397.3 141.3,387.2 137.3,379.0 133.4,374.2 127.2,371.9 117.7,359.4 114.6,353.4 115.1,349.6 117.7,348.4 118.5,348.0 124.7,348.7 130.6,347.2 135.9,343.8 141.3,342.7 142.4,343.1 143.8,343.4 152.2,343.4 166.0,343.4 179.7,343.4 193.8,343.4 207.5,343.4 221.3,343.4 235.3,343.4 249.1,343.4 263.1,343.4 276.9,343.4 290.6,343.4 304.7,343.4 318.4,343.4 332.5,343.4 346.2,343.4 360.0,343.4 374.0,343.4 382.5,343.4 388.4,343.4 394.0,346.3 400.2,349.8 417.0,359.1 433.6,368.3 450.1,377.7 466.7,386.9 483.3,396.2 500.1,405.4 516.7,414.8 533.3,424.1 549.8,433.3 566.4,442.7 583.2,451.9 599.8,461.2 616.4,470.4 632.9,479.8 649.8,489.0 666.4,498.3 674.2,502.8 675.3,504.7 676.7,513.1 677.6,518.4 677.3,523.1 672.8,531.0 671.4,535.2 671.4,538.0 672.5,539.1 676.2,539.5 679.5,541.4 680.7,542.9 683.2,548.8 686.3,551.8 693.3,556.8 705.1,565.5 717.2,574.2 729.3,582.7 741.0,591.3 753.1,600.0 765.2,608.5 777.0,617.2 789.1,625.9 795.0,630.1 797.2,631.2 795.8,637.8 789.6,653.6 789.3,660.3 786.8,668.1 784.6,673.3 778.4,695.6 773.1,704.0 766.0,723.6 764.6,738.7 768.8,749.2 770.2,759.0 778.7,768.7 785.1,772.1 789.9,776.6 797.8,786.6 802.5,796.8 816.9,801.8 822.5,813.0 820.5,820.9 813.8,827.4 807.6,837.8 802.5,851.6 802.3,872.6 805.9,869.5 813.5,874.6 814.3,890.1 806.5,908.2 804.2,916.6 803.7,923.8 809.6,945.4 818.0,956.4 817.4,959.9 815.2,962.8 830.1,982.3 828.7,999.2 834.3,1012.3 836.8,1023.7 840.4,1032.5 841.0,1038.5 836.5,1045.2 847.5,1046.9 853.6,1052.4 856.7,1057.7 864.6,1057.4 868.8,1060.9 875.0,1063.9 888.2,1072.7 891.8,1077.2 893.2,1079.8 894.1,1081.4 885.1,1088.2 871.1,1098.9 857.0,1109.3 843.8,1116.3 834.3,1119.7 823.9,1121.5 814.3,1125.9 805.1,1132.7 793.3,1136.2 779.0,1136.2 764.1,1141.1 749.2,1150.2 740.5,1155.5 726.4,1147.5 715.8,1144.9 703.4,1145.2 695.8,1146.3 693.0,1147.9 690.8,1152.8 688.8,1160.7 680.7,1168.5 666.4,1175.9 653.2,1178.6 641.1,1176.7 632.9,1173.7 628.7,1169.4 622.3,1167.4 614.1,1167.8 606.3,1170.8 598.7,1176.6 586.3,1179.0 569.8,1178.3 561.1,1175.5 559.6,1170.8 552.3,1165.1 539.1,1158.7 529.3,1158.6 522.9,1164.7 517.2,1168.6 511.9,1170.2 507.4,1170.4 503.2,1169.1 500.7,1168.7 482.1,1168.1 464.7,1168.3 464.2,1165.6 463.1,1159.4 459.4,1153.8 456.3,1150.6 452.4,1149.8 450.4,1149.9 448.7,1147.3 446.8,1141.8 443.7,1137.0 439.7,1133.1 437.5,1129.5 436.7,1126.1 437.2,1122.4 440.9,1113.3 442.0,1107.0 441.7,1100.6 439.7,1094.0 435.5,1086.1 436.1,1084.0 434.7,1078.5 434.4,1074.8 435.3,1070.2 434.4,1064.1 430.8,1050.9 430.8,1047.5 427.1,1041.2 415.6,1026.1 415.0,1024.2 396.8,1009.1 389.8,1005.8 387.0,1008.7 386.1,1011.3 387.0,1016.1 386.4,1018.6 385.5,1019.6 381.3,1019.5 378.5,1019.0 371.8,1014.9 366.5,1013.8 353.3,1014.6 348.5,1015.6 344.8,1014.6 337.8,1007.7 329.7,1006.2 322.1,1005.8 310.0,998.0 307.2,998.4 305.8,998.9Z M835.4,887.5 831.2,888.4 829.5,887.5 827.0,884.2 831.5,881.4 836.0,876.1 846.1,868.1 849.4,863.0 850.8,861.9 850.0,868.0 844.4,881.4 839.3,882.3 835.4,887.5Z" fill="#e9ecf1" stroke="#9aa4b2" stroke-width="1.2"/><path d="M44.9,373.5 47.5,373.3 64.3,369.4 66.0,370.6 68.8,378.5 70.2,379.6 72.5,379.8 77.2,378.1 85.9,372.0 89.6,368.2 94.1,363.1 99.7,357.1 103.1,352.1 106.2,349.0 110.1,348.2 114.6,348.3 117.7,348.4 115.1,349.6 114.6,353.4 117.7,359.4 127.2,371.9 133.4,374.2 137.3,379.0 141.3,387.2 142.7,397.3 141.0,409.5 141.8,418.7 145.5,424.7 146.3,432.4 144.6,441.9 142.7,447.5 140.1,449.4 137.6,450.3 133.7,449.6 129.2,450.4 124.4,452.1 121.3,452.4 119.3,452.0 115.7,450.5 109.8,445.7 99.1,448.4 96.3,448.2 92.4,450.7 89.0,453.5 87.1,453.6 85.1,453.2 75.8,447.5 72.5,447.7 71.1,463.9 69.6,473.0 67.7,477.1 61.2,481.0 54.5,483.2 50.8,483.0 36.2,484.2 30.3,484.2 27.2,482.9 23.0,473.7 15.5,469.6 7.9,467.7 5.1,468.3 2.3,473.0 1.1,477.3 -6.2,474.4 -8.1,470.7 -8.4,464.5 -11.2,456.1 -9.5,452.4 -6.7,450.1 -0.8,445.7 8.4,439.4 10.4,436.4 11.5,431.4 11.0,420.1 10.1,410.3 11.2,406.8 15.5,399.3 20.8,391.6 27.5,383.6 31.5,382.8 36.5,379.7 41.8,375.1 44.9,373.5Z" fill="#e9ecf1" stroke="#9aa4b2" stroke-width="1.2"/><path d="M382.5,343.4 374.0,343.4 360.0,343.4 346.2,343.4 332.5,343.4 318.4,343.4 304.7,343.4 290.6,343.4 276.9,343.4 263.1,343.4 249.1,343.4 235.3,343.4 221.3,343.4 207.5,343.4 193.8,343.4 179.7,343.4 166.0,343.4 152.2,343.4 143.8,343.4 142.4,343.1 141.3,342.7 135.9,343.8 130.6,347.2 124.7,348.7 118.5,348.0 117.7,348.4 114.6,348.3 110.1,348.2 106.2,349.0 103.1,352.1 99.7,357.1 94.1,363.1 89.6,368.2 85.9,372.0 77.2,378.1 72.5,379.8 70.2,379.6 68.8,378.5 66.0,370.6 64.3,369.4 47.5,373.3 44.9,373.5 45.2,371.0 44.1,352.6 43.8,341.4 46.1,334.3 47.2,326.2 47.5,319.2 50.6,307.0 49.4,299.7 53.4,274.1 54.5,269.9 55.9,257.6 58.4,253.8 60.7,252.3 63.5,244.7 69.1,232.5 73.0,226.3 72.2,212.6 72.7,203.4 73.6,201.2 81.7,197.9 92.4,189.3 96.6,179.2 103.1,172.8 115.1,168.6 115.4,168.6 151.6,133.9 168.5,115.3 175.8,105.8 176.1,102.3 177.5,97.8 174.4,94.3 171.0,91.0 169.9,88.2 166.8,86.7 162.3,86.7 159.5,84.7 156.4,80.5 153.0,77.7 142.7,78.0 134.8,73.7 134.8,67.9 138.2,56.4 144.1,43.1 144.3,39.6 143.5,36.4 142.1,33.7 139.3,31.0 136.8,27.9 138.7,18.4 142.7,9.1 145.7,4.5 148.8,-0.7 147.7,-5.0 143.5,-7.0 145.7,-11.2 150.5,-18.3 159.8,-25.3 167.9,-30.0 173.3,-30.0 183.9,-26.4 193.5,-21.9 198.8,-21.6 205.0,-23.5 218.2,-31.4 221.3,-29.0 225.2,-24.1 229.4,-16.2 237.8,-12.6 241.8,-10.1 244.6,-9.3 246.3,-10.0 249.4,-16.2 253.0,-19.6 260.3,-23.9 275.8,-27.3 286.7,-28.3 291.5,-29.1 299.3,-31.1 311.7,-37.5 324.1,-29.2 337.3,-27.6 350.2,-27.7 354.1,-30.2 356.3,-32.1 369.8,-45.6 388.1,-64.0 400.4,-38.2 404.4,-36.7 403.8,-34.4 403.0,-32.2 410.8,-26.0 420.6,-22.7 424.0,-19.6 424.6,-16.1 421.2,-0.9 421.8,3.3 424.9,18.4 430.8,21.8 436.1,37.1 446.5,43.5 447.9,45.4 450.4,52.8 453.5,60.8 456.0,62.7 457.4,63.3 460.5,71.8 458.8,76.7 461.4,91.3 465.3,104.3 466.1,120.0 466.4,126.9 466.1,131.1 465.3,137.1 463.3,140.4 460.0,143.8 456.3,149.1 453.2,154.7 451.3,157.5 452.7,165.9 452.4,168.1 451.5,169.1 446.8,170.5 440.6,172.8 436.9,175.0 431.9,179.3 427.7,183.9 422.1,197.6 412.8,208.1 411.4,211.7 402.7,218.0 398.7,225.7 396.2,235.4 392.9,242.3 385.5,251.6 383.9,266.5 384.1,296.3 382.2,330.0 382.5,343.4Z" fill="#dde5ee" stroke="#3c5a80" stroke-width="1.6"/><path d="M935.6,433.6 932.6,434.3 934.2,429.8 942.7,424.0 946.3,425.3 946.9,426.7 946.6,427.8 945.2,429.0 935.6,433.6Z M382.5,343.4 382.2,330.0 384.1,296.3 383.9,266.5 385.5,251.6 392.9,242.3 396.2,235.4 398.7,225.7 402.7,218.0 411.4,211.7 412.8,208.1 422.1,197.6 427.7,183.9 431.9,179.3 436.9,175.0 440.6,172.8 446.8,170.5 451.5,169.1 452.4,168.1 452.7,165.9 451.3,157.5 453.2,154.7 456.3,149.1 460.0,143.8 463.3,140.4 465.3,137.1 466.1,131.1 466.4,126.9 466.1,120.0 465.3,104.3 461.4,91.3 458.8,76.7 460.5,71.8 457.4,63.3 456.0,62.7 453.5,60.8 450.4,52.8 447.9,45.4 446.5,43.5 436.1,37.1 430.8,21.8 424.9,18.4 421.8,3.3 421.2,-0.9 424.6,-16.1 424.0,-19.6 420.6,-22.7 410.8,-26.0 403.0,-32.2 403.8,-34.4 404.4,-36.7 400.4,-38.2 388.1,-64.0 403.8,-79.5 419.5,-95.2 440.0,-115.1 458.6,-133.4 474.6,-149.1 488.9,-163.1 488.6,-160.6 488.6,-156.9 490.6,-154.7 493.4,-153.3 497.6,-154.9 501.0,-157.1 504.6,-157.5 526.2,-151.6 529.6,-146.5 529.6,-141.1 530.4,-137.0 528.8,-133.1 527.1,-120.9 527.6,-109.8 534.1,-101.7 539.7,-95.2 544.2,-86.1 547.9,-83.3 552.3,-81.9 567.2,-81.5 589.1,-81.0 610.2,-80.4 612.2,-80.1 616.6,-78.9 636.0,-66.6 653.7,-55.5 668.9,-45.7 683.5,-36.3 697.8,-27.1 708.8,-19.3 719.7,-17.0 737.1,-16.0 749.5,-15.6 760.7,-12.4 777.5,-9.5 789.9,-7.8 797.5,-6.2 818.5,-4.3 821.9,-5.4 831.2,-13.9 841.6,-27.6 845.8,-35.2 859.0,-42.8 882.6,-53.2 899.1,-60.6 917.7,-68.1 926.1,-61.6 937.6,-51.3 942.7,-46.2 946.9,-43.9 953.3,-42.4 960.9,-42.4 965.1,-42.6 973.6,-44.0 993.5,-45.2 1005.0,-45.1 995.5,-31.4 983.9,-14.9 962.6,15.5 946.6,31.4 934.2,43.5 933.1,45.7 933.4,59.1 933.4,92.0 933.7,157.6 934.0,223.4 934.2,289.1 934.2,322.0 934.2,333.1 944.9,346.9 955.6,360.3 969.3,378.2 976.6,387.8 978.0,391.1 977.5,397.4 966.2,410.9 957.0,416.9 944.3,419.8 940.7,419.2 935.6,417.3 933.7,420.6 932.3,425.6 929.5,424.5 927.5,423.0 928.6,432.0 930.0,436.3 928.1,442.3 921.9,447.4 921.3,451.7 908.1,463.3 889.6,464.6 879.8,470.3 875.3,474.9 871.9,485.1 873.3,500.8 868.0,512.7 867.1,518.8 857.3,526.5 853.1,533.7 850.0,541.0 847.2,544.2 843.8,560.5 839.3,570.4 838.2,573.7 837.1,576.7 833.7,582.5 831.5,586.5 829.8,589.2 818.3,614.5 809.3,626.0 802.5,624.7 797.8,629.1 797.2,631.2 795.0,630.1 789.1,625.9 777.0,617.2 765.2,608.5 753.1,600.0 741.0,591.3 729.3,582.7 717.2,574.2 705.1,565.5 693.3,556.8 686.3,551.8 683.2,548.8 680.7,542.9 679.5,541.4 676.2,539.5 672.5,539.1 671.4,538.0 671.4,535.2 672.8,531.0 677.3,523.1 677.6,518.4 676.7,513.1 675.3,504.7 674.2,502.8 666.4,498.3 649.8,489.0 632.9,479.8 616.4,470.4 599.8,461.2 583.2,451.9 566.4,442.7 549.8,433.3 533.3,424.1 516.7,414.8 500.1,405.4 483.3,396.2 466.7,386.9 450.1,377.7 433.6,368.3 417.0,359.1 400.2,349.8 394.0,346.3 388.4,343.4 382.5,343.4Z" fill="#fbe3c8" stroke="#e8862e" stroke-width="2.2"/><ellipse cx="312" cy="367" rx="62" ry="74" fill="#cfe3ec" stroke="#b3cedd" stroke-width="1.5"/><path d="M279,238 Q220,370 83,417" fill="none" stroke="#9aa4b2" stroke-width="6" stroke-linecap="round" stroke-dasharray="2 10"/><path d="M831,581 Q791,684 802,795" fill="none" stroke="#9aa4b2" stroke-width="6" stroke-linecap="round" stroke-dasharray="2 10"/><path d="M610,366 Q590,320 551,289" fill="none" stroke="#1d3a5f" stroke-width="8" stroke-linecap="round" stroke-dasharray="1 14"/><path d="M551,289 Q502,268 449,272" fill="none" stroke="#1d3a5f" stroke-width="8" stroke-linecap="round" stroke-dasharray="1 14"/><path d="M551,289 Q496,224 412,216" fill="none" stroke="#1d3a5f" stroke-width="8" stroke-linecap="round" stroke-dasharray="1 14"/><path d="M412,216 Q343,211 279,238" fill="none" stroke="#1d3a5f" stroke-width="8" stroke-linecap="round" stroke-dasharray="1 14"/><path d="M831,581 Q742,451 610,366" fill="none" stroke="#e8862e" stroke-width="13" stroke-linecap="round"/><path d="M831,581 Q742,451 610,366" fill="none" stroke="rgba(232,134,46,0.25)" stroke-width="26" stroke-linecap="round"/><circle cx="831" cy="581" r="13" fill="#e8862e" stroke="#ffffff" stroke-width="3"/><text x="809" y="579" font-size="30" font-weight="700" fill="#0d1b2e" text-anchor="end">蒙巴萨港</text><text x="809" y="605" font-size="19" fill="#5b6675" text-anchor="end">东非第一大港 · 211万TEU</text><circle cx="610" cy="366" r="13" fill="#e8862e" stroke="#ffffff" stroke-width="3"/><text x="630" y="354" font-size="30" font-weight="700" fill="#0d1b2e" text-anchor="start">内罗毕</text><text x="630" y="380" font-size="19" fill="#5b6675" text-anchor="start">区域枢纽 · 总部</text><circle cx="551" cy="289" r="8" fill="#1d3a5f" stroke="#ffffff" stroke-width="3"/><text x="563" y="273" font-size="22" font-weight="700" fill="#0d1b2e" text-anchor="start">纳库鲁</text><circle cx="449" cy="272" r="8" fill="#1d3a5f" stroke="#ffffff" stroke-width="3"/><text x="435" y="296" font-size="22" font-weight="700" fill="#0d1b2e" text-anchor="end">基苏木</text><circle cx="412" cy="216" r="8" fill="#1d3a5f" stroke="#ffffff" stroke-width="3"/><text x="418" y="200" font-size="20" font-weight="700" fill="#0d1b2e" text-anchor="start">Malaba 口岸</text><circle cx="279" cy="238" r="10" fill="#1d3a5f" stroke="#ffffff" stroke-width="3"/><text x="263" y="224" font-size="24" font-weight="700" fill="#0d1b2e" text-anchor="end">坎帕拉</text><circle cx="83" cy="417" r="8" fill="#9aa4b2" stroke="#ffffff" stroke-width="3"/><text x="69" y="445" font-size="22" font-weight="700" fill="#0d1b2e" text-anchor="end">基加利</text><circle cx="802" cy="795" r="8" fill="#9aa4b2" stroke="#ffffff" stroke-width="3"/><text x="786" y="825" font-size="22" font-weight="700" fill="#0d1b2e" text-anchor="end">达累斯萨拉姆</text><text x="733" y="203" font-size="30" font-weight="800" fill="#d9a25f" letter-spacing="4" text-anchor="middle">肯尼亚</text><text x="257" y="117" font-size="24" font-weight="800" fill="#7d92ab" letter-spacing="4" text-anchor="middle">乌干达</text><text x="452" y="702" font-size="24" font-weight="800" fill="#8b95a5" letter-spacing="4" text-anchor="middle">坦桑尼亚</text><text x="66" y="488" font-size="18" font-weight="800" fill="#8b95a5" letter-spacing="4" text-anchor="middle">卢旺达</text><text x="975" y="725" font-size="22" font-weight="800" fill="#9db8c6" letter-spacing="4" text-anchor="middle">印度洋</text></svg>